<?xml version="1.0" encoding="UTF-8"?>
<svg width="198px" height="81px" viewBox="0 0 198 81" version="1.1" xmlns="http://www.w3.org/2000/svg" xmlns:xlink="http://www.w3.org/1999/xlink">
    <title>pdf-to-jpg</title>
    <defs>
        <circle id="path-1" cx="32.9751368" cy="32.9751368" r="28"></circle>
        <filter x="-23.2%" y="-19.6%" width="146.4%" height="146.4%" filterUnits="objectBoundingBox" id="filter-2">
            <feOffset dx="0" dy="2" in="SourceAlpha" result="shadowOffsetOuter1"></feOffset>
            <feGaussianBlur stdDeviation="4" in="shadowOffsetOuter1" result="shadowBlurOuter1"></feGaussianBlur>
            <feComposite in="shadowBlurOuter1" in2="SourceAlpha" operator="out" result="shadowBlurOuter1"></feComposite>
            <feColorMatrix values="0 0 0 0 0   0 0 0 0 0   0 0 0 0 0  0 0 0 0.0853758058 0" type="matrix" in="shadowBlurOuter1"></feColorMatrix>
        </filter>
        <circle id="path-3" cx="32.9751368" cy="32.9751368" r="32"></circle>
        <filter x="-20.3%" y="-17.2%" width="140.6%" height="140.6%" filterUnits="objectBoundingBox" id="filter-4">
            <feOffset dx="0" dy="2" in="SourceAlpha" result="shadowOffsetOuter1"></feOffset>
            <feGaussianBlur stdDeviation="4" in="shadowOffsetOuter1" result="shadowBlurOuter1"></feGaussianBlur>
            <feComposite in="shadowBlurOuter1" in2="SourceAlpha" operator="out" result="shadowBlurOuter1"></feComposite>
            <feColorMatrix values="0 0 0 0 0   0 0 0 0 0   0 0 0 0 0  0 0 0 0.0853758058 0" type="matrix" in="shadowBlurOuter1"></feColorMatrix>
        </filter>
        <circle id="path-5" cx="32.9751368" cy="32.9751368" r="21.9751368"></circle>
        <filter x="-29.6%" y="-25.0%" width="159.2%" height="159.2%" filterUnits="objectBoundingBox" id="filter-6">
            <feOffset dx="0" dy="2" in="SourceAlpha" result="shadowOffsetOuter1"></feOffset>
            <feGaussianBlur stdDeviation="4" in="shadowOffsetOuter1" result="shadowBlurOuter1"></feGaussianBlur>
            <feComposite in="shadowBlurOuter1" in2="SourceAlpha" operator="out" result="shadowBlurOuter1"></feComposite>
            <feColorMatrix values="0 0 0 0 0   0 0 0 0 0   0 0 0 0 0  0 0 0 0.0853758058 0" type="matrix" in="shadowBlurOuter1"></feColorMatrix>
        </filter>
    </defs>
    <g id="Page-1" stroke="none" stroke-width="1" fill="none" fill-rule="evenodd">
        <g id="Smartpdf-covert-to-jpg" transform="translate(-621.000000, -147.000000)">
            <g id="Group-6" transform="translate(621.500000, 151.000000)">
                <line x1="40.669863" y1="35" x2="161.669863" y2="35" id="Path-9" stroke="#3566E0" stroke-dasharray="2"></line>
                <g id="Group-5" transform="translate(69.000000, 2.000000)">
                    <g id="Oval" opacity="0.415568991">
                        <use fill="black" fill-opacity="1" filter="url(#filter-2)" xlink:href="#path-1"></use>
                        <circle stroke="#3566E0" stroke-width="1" stroke-linejoin="square" fill="#FFFFFF" fill-rule="evenodd" cx="32.9751368" cy="32.9751368" r="27.5"></circle>
                    </g>
                    <g id="Oval-Copy-4" opacity="0.116746611">
                        <use fill="black" fill-opacity="1" filter="url(#filter-4)" xlink:href="#path-3"></use>
                        <circle stroke="#3566E0" stroke-width="1" stroke-linejoin="square" fill="#FFFFFF" fill-rule="evenodd" cx="32.9751368" cy="32.9751368" r="31.5"></circle>
                    </g>
                    <g id="Oval-Copy-3">
                        <use fill="black" fill-opacity="1" filter="url(#filter-6)" xlink:href="#path-5"></use>
                        <circle stroke="#E8E8E8" stroke-width="1" stroke-linejoin="square" fill="#FFFFFF" fill-rule="evenodd" cx="32.9751368" cy="32.9751368" r="21.4751368"></circle>
                    </g>
                    <g id="011-right-arrow" transform="translate(19.975137, 25.475137)" fill="#3566E0" fill-rule="nonzero">
                        <polygon id="Path" points="18.8380629 0.0272536688 17.6818532 1.18351782 22.8269644 6.32868344 0 6.32868344 0 7.96390356 22.8269644 7.96390356 17.6818532 13.1090147 18.8380629 14.2652788 25.9571027 7.14623899"></polygon>
                    </g>
                </g>
                <g id="jpg" transform="translate(141.600000, 0.000000)">
                    <path d="M38.73125,0.5 L53.6991236,15.2187271 C53.850846,15.3713746 53.875,15.6105423 53.875,16.2225 L53.875,16.2225 L53.875,68.75 C53.875,68.8934441 53.6514939,69.0649689 53.4422251,69.2080098 C53.20021,69.3734336 52.8883602,69.5 52.54625,69.5 L52.54625,69.5 L2.45375,69.5 C2.11163976,69.5 1.79978999,69.3734336 1.55777488,69.2080098 C1.3485061,69.0649689 1.125,68.8934441 1.125,68.75 L1.125,68.75 L1.125,2.4075 C1.125,1.7842732 1.26313138,1.29747819 1.5157098,0.964965528 C1.7500083,0.656517881 2.08362663,0.5 2.45375,0.5 L2.45375,0.5 L38.73125,0.5 Z" id="Path" stroke="#EBEBEB" fill="#FFFFFF"></path>
                    <polygon id="Path" fill="#E8E8E8" fill-rule="nonzero" points="39.375 0.18875 39.375 15 54.18625 15"></polygon>
                    <circle id="Oval" fill="#F3D55B" fill-rule="nonzero" cx="16.16375" cy="18.03875" r="5.71125"></circle>
                    <polygon id="Path" fill="#26B99A" fill-rule="nonzero" points="0.625 48.75 14.375 48.75 54.375 48.75 54.375 35 41.875 23.125 28.75 37.5 21.89625 30.64625"></polygon>
                    <path d="M52.54625,70 L2.45375,70 C1.44375,70 0.625,69.18125 0.625,68.17125 L0.625,48.75 L54.375,48.75 L54.375,68.17125 C54.375,69.18125 53.55625,70 52.54625,70 Z" id="Path" fill="#14A085" fill-rule="nonzero"></path>
                    <g id="Group" transform="translate(11.250000, 52.500000)" fill="#FFFFFF" fill-rule="nonzero">
                        <path d="M8.0325,0.8125 L8.0325,10.6225 C8.0325,11.215 7.92375,11.71375 7.7075,12.1175 C7.49125,12.52125 7.2,12.84625 6.83625,13.09125 C6.47125,13.33625 6.0525,13.5075 5.58,13.60375 C5.10625,13.70125 4.62,13.75 4.11875,13.75 C3.8675,13.75 3.57375,13.72375 3.23875,13.6725 C2.9025,13.62125 2.555,13.5425 2.19625,13.43375 C1.8375,13.325 1.4925,13.2025 1.1625,13.06625 C0.83125,12.93 0.5525,12.77625 0.325,12.605 L1.19625,11.22125 C1.31,11.3 1.4725,11.38375 1.68375,11.46875 C1.89375,11.55375 2.125,11.63375 2.37625,11.7075 C2.62625,11.7825 2.88875,11.84625 3.1625,11.90375 C3.43625,11.96125 3.6925,11.98875 3.93125,11.98875 C4.535,11.98875 5.01625,11.87125 5.375,11.63875 C5.73375,11.40625 5.92375,11.00875 5.9475,10.45125 L5.9475,0.8125 L8.0325,0.8125 Z" id="Path"></path>
                        <path d="M13.1425,13.665 L11.09125,13.665 L11.09125,1.06875 L14.71375,1.06875 C15.24875,1.06875 15.77875,1.15375 16.3025,1.325 C16.82625,1.49625 17.29625,1.7525 17.7125,2.09375 C18.12875,2.435 18.465,2.84875 18.72125,3.3325 C18.9775,3.81625 19.10625,4.36 19.10625,4.965 C19.10625,5.60375 18.9975,6.18125 18.78125,6.7 C18.565,7.21875 18.2625,7.655 17.875,8.0075 C17.4875,8.36 17.02,8.63375 16.47375,8.8275 C15.9275,9.02125 15.3225,9.1175 14.6625,9.1175 L13.14125,9.1175 L13.14125,13.665 L13.1425,13.665 Z M13.1425,2.625 L13.1425,7.615 L15.0225,7.615 C15.2725,7.615 15.52,7.5725 15.76625,7.48625 C16.01125,7.40125 16.23625,7.26125 16.44125,7.0675 C16.64625,6.87375 16.81125,6.60375 16.93625,6.25625 C17.06125,5.90875 17.12375,5.47875 17.12375,4.96625 C17.12375,4.76125 17.095,4.52375 17.03875,4.2575 C16.98125,3.99 16.865,3.73375 16.68875,3.48875 C16.51125,3.24375 16.26375,3.03875 15.945,2.87375 C15.625,2.7075 15.20375,2.625 14.68,2.625 L13.1425,2.625 Z" id="Shape"></path>
                        <path d="M30.625,7.17 L30.625,12.04 C30.3625,12.37125 30.07,12.64 29.745,12.85125 C29.42,13.0625 29.07875,13.23625 28.72,13.3725 C28.36125,13.50875 27.99125,13.60625 27.60875,13.6625 C27.22625,13.7225 26.84875,13.75 26.4725,13.75 C25.72,13.75 25.02875,13.61375 24.39625,13.34 C23.76375,13.06625 23.21125,12.6625 22.73875,12.12625 C22.26625,11.59 21.895,10.91875 21.6275,10.11 C21.36,9.30125 21.22625,8.36625 21.22625,7.3075 C21.22625,6.24875 21.36,5.31625 21.6275,4.51375 C21.895,3.71 22.265,3.04125 22.73875,2.50625 C23.21125,1.97 23.76625,1.56375 24.405,1.28375 C25.0425,1.00375 25.7325,0.865 26.4725,0.865 C27.15625,0.865 27.79375,0.97875 28.38625,1.20625 C28.97875,1.435 29.5075,1.77625 29.975,2.23125 L28.55625,3.49625 C28.2825,3.165 27.96875,2.92625 27.61625,2.77875 C27.2625,2.63125 26.89875,2.55625 26.5225,2.55625 C26.10125,2.55625 25.69875,2.635 25.3175,2.795 C24.935,2.955 24.59375,3.225 24.2925,3.60625 C23.99,3.98875 23.75375,4.48 23.58375,5.085 C23.41375,5.69 23.32125,6.42875 23.31,7.30625 C23.32125,8.16125 23.41,8.90125 23.575,9.5275 C23.74,10.15375 23.9675,10.66625 24.25875,11.065 C24.55,11.46375 24.88,11.76 25.25,11.95375 C25.62,12.1475 26.01,12.24375 26.42125,12.24375 C26.54625,12.24375 26.71375,12.235 26.925,12.2175 C27.135,12.2 27.34625,12.1725 27.5575,12.1325 C27.7675,12.0925 27.97,12.03875 28.16375,11.97 C28.3575,11.90125 28.5,11.805 28.59125,11.68 L28.59125,8.57 L26.455,8.57 L26.455,7.16875 L30.625,7.16875 L30.625,7.17 Z" id="Path"></path>
                    </g>
                </g>
                <g id="file-(2)">
                    <path d="M36.5896021,0.5 L46.9791931,10.8901019 L46.9791931,64.7840219 L0.5,64.7840219 L0.5,0.5 L36.5896021,0.5 Z" id="Path" stroke="#EBEBEB" fill="#FFFFFF"></path>
                    <polygon id="Path" fill="#E8E8E8" fill-rule="nonzero" points="36.7967161 0 36.7967161 10.6830023 47.4791931 10.6830023"></polygon>
                    <polygon id="Path" fill="#B53438" fill-rule="nonzero" points="0 47.4791931 47.4791931 47.4791931 47.4791931 68.8451977 0 68.8451977"></polygon>
                    <g id="Group" transform="translate(5.916384, 50.961582)" fill="#FFFFFF" fill-rule="nonzero">
                        <path d="M1.2054423,14.32244 C0.55045904,14.32244 0.0183836847,13.7908898 0.0183836847,13.1359066 L0.0183836847,1.26584562 C0.0183836847,0.61033715 0.55045904,0.0787871435 1.2054423,0.0787871435 C1.86095078,0.0787871435 2.39250092,0.61033715 2.39250092,1.26584562 L2.39250092,13.1359066 C2.39250092,13.7908898 1.86095078,14.32244 1.2054423,14.32244 Z" id="Path"></path>
                        <path d="M34.4409826,2.45290438 L27.3191561,2.45290438 C26.6641728,2.45290438 26.1320975,1.92082889 26.1320975,1.26584562 C26.1320975,0.61033715 26.6641728,0.0787871435 27.3191561,0.0787871435 L34.4409826,0.0787871435 C35.096491,0.0787871435 35.6280412,0.61033715 35.6280412,1.26584562 C35.6280412,1.92082889 35.096491,2.45290438 34.4409826,2.45290438 Z" id="Path"></path>
                        <path d="M34.4409826,8.38767211 L27.3191561,8.38767211 C26.6641728,8.38767211 26.1320975,7.85612196 26.1320975,7.20061349 C26.1320975,6.54563036 26.6641728,6.01355487 27.3191561,6.01355487 L34.4409826,6.01355487 C35.096491,6.01355487 35.6280412,6.54563036 35.6280412,7.20061349 C35.6280412,7.85612196 35.096491,8.38767211 34.4409826,8.38767211 Z" id="Path"></path>
                        <path d="M27.3191561,14.32244 C26.6641728,14.32244 26.1320975,13.7908898 26.1320975,13.1359066 L26.1320975,1.26584562 C26.1320975,0.61033715 26.6641728,0.0787871435 27.3191561,0.0787871435 C27.9746645,0.0787871435 28.5062147,0.61033715 28.5062147,1.26584562 L28.5062147,13.1359066 C28.5062147,13.7908898 27.9746645,14.32244 27.3191561,14.32244 Z" id="Path"></path>
                    </g>
                    <path d="M22.8860699,12.792395 C22.7699903,12.8302128 21.3134798,14.8445357 23.0000485,16.5489628 C24.123027,14.0787253 22.9375442,12.7766375 22.8860699,12.792395 M23.6046081,22.6785972 C22.7579096,25.5690325 21.641234,28.6895259 20.4410443,31.5143053 C22.9123323,30.5672846 25.6010725,29.7400203 28.12436,29.154895 C26.5281338,27.3233581 24.9324329,25.0359066 23.6046081,22.6785972 M32.440316,30.3666403 C33.4041446,31.0988347 33.6389301,31.469134 34.2708025,31.469134 C34.5470824,31.469134 35.336529,31.4575786 35.7010504,30.9543917 C35.8780588,30.7096266 35.9468662,30.5531029 35.9726033,30.4711643 C35.8281603,30.393953 35.6343441,30.2411061 34.5827992,30.2411061 C33.9845428,30.2411061 33.2344897,30.2668432 32.440316,30.3666403 M16.3105005,35.5571328 C13.7819607,36.9590174 12.751951,38.111935 12.6784162,38.7621911 C12.6663357,38.8703919 12.6342956,39.152975 13.1873809,39.5705464 C13.3643891,39.5148703 14.3933484,39.0516022 16.3105005,35.5571328 M13.1611184,41.5444254 C12.7493246,41.5444254 12.3543388,41.4125883 12.0171302,41.163621 C10.7859508,40.2496911 10.6199727,39.2343882 10.6982345,38.5426377 C10.9130605,36.6422934 13.2940061,34.6505561 17.777516,32.6220516 C19.556528,28.7714645 21.2493997,24.0269068 22.2583995,20.0633917 C21.0786944,17.5259225 19.930504,14.2341984 20.7661723,12.3028646 C21.0592603,11.6263463 21.426408,11.1068767 22.1076535,10.882071 C22.3781559,10.7943547 23.0594016,10.6830023 23.3099444,10.6830023 C23.9307865,10.6830023 24.5269421,11.4236008 24.813727,11.9052524 C25.3479035,12.7992232 25.3505297,13.8402631 25.2659649,14.8445357 C25.1840263,15.8199197 25.0180482,16.7900513 24.8268583,17.7491525 C24.6871424,18.4540343 24.5290431,19.1557645 24.3604388,19.8548684 C25.954564,23.1056233 28.2120763,26.4188823 30.3771451,28.6868997 C31.9287253,28.4106196 33.2628531,28.2703787 34.3501148,28.2703787 C36.2005605,28.2703787 37.3245895,28.6963541 37.7815546,29.5735169 C38.1618335,30.2999338 38.0047846,31.1503089 37.3198623,32.0973296 C36.6612024,33.0075829 35.7546257,33.4881841 34.694677,33.4881841 C33.2544492,33.4881841 31.5810117,32.5910619 29.7127074,30.818878 C26.3569032,31.5122043 22.4385593,32.7475857 19.2707936,34.1153293 C18.2817532,36.1874294 17.3347326,37.8566648 16.451792,39.0815414 C15.2421478,40.7623323 14.1963806,41.5444254 13.1611184,41.5444254" id="Shape" fill="#B53438" fill-rule="nonzero"></path>
                    <path d="M10.6830023,60.5363126 L7.12182648,60.5363126 C6.46684322,60.5363126 5.93476787,60.0047625 5.93476787,59.349254 L5.93476787,52.2274275 C5.93476787,51.5719191 6.46684322,51.0403691 7.12182648,51.0403691 L10.6830023,51.0403691 C13.3013595,51.0403691 15.4307114,53.169721 15.4307114,55.7886035 C15.4307114,58.4069607 13.3013595,60.5363126 10.6830023,60.5363126 L10.6830023,60.5363126 Z M8.3088851,58.1621954 L10.6830023,58.1621954 C11.9919183,58.1621954 13.0565942,57.0975194 13.0565942,55.7886035 C13.0565942,54.4791622 11.9919183,53.4144863 10.6830023,53.4144863 L8.3088851,53.4144863 L8.3088851,58.1621954 Z" id="Shape" fill="#FFFFFF" fill-rule="nonzero"></path>
                    <path d="M21.3660047,65.2840219 L20.1789459,65.2840219 C19.5234374,65.2840219 18.9918874,64.7524718 18.9918874,64.0974885 L18.9918874,52.2274275 C18.9918874,51.5719191 19.5234374,51.0403691 20.1789459,51.0403691 L21.3660047,51.0403691 C25.2922272,51.0403691 28.487831,54.2343971 28.487831,58.1621954 C28.487831,62.0899939 25.2922272,65.2840219 21.3660047,65.2840219 Z M21.3660047,53.4144863 L21.3660047,62.9104299 C23.9843618,62.9104299 26.1137138,60.7805527 26.1137138,58.1621954 C26.1137138,55.5438383 23.9843618,53.4144863 21.3660047,53.4144863 Z" id="Shape" fill="#FFFFFF" fill-rule="nonzero"></path>
                </g>
            </g>
        </g>
    </g>
</svg>