<?xml version="1.0" encoding="UTF-8"?>
<svg width="112px" height="114px" viewBox="0 0 112 114" version="1.1" xmlns="http://www.w3.org/2000/svg" xmlns:xlink="http://www.w3.org/1999/xlink">
    <title>pdf-edit</title>
    <defs>
        <linearGradient x1="50%" y1="0%" x2="50%" y2="100%" id="linearGradient-1">
            <stop stop-color="#659FF2" offset="0%"></stop>
            <stop stop-color="#3566E0" offset="100%"></stop>
        </linearGradient>
        <circle id="path-2" cx="45.5001001" cy="45.5001001" r="45.5001001"></circle>
        <filter x="-14.3%" y="-12.1%" width="128.6%" height="128.6%" filterUnits="objectBoundingBox" id="filter-3">
            <feOffset dx="0" dy="2" in="SourceAlpha" result="shadowOffsetOuter1"></feOffset>
            <feGaussianBlur stdDeviation="4" in="shadowOffsetOuter1" result="shadowBlurOuter1"></feGaussianBlur>
            <feColorMatrix values="0 0 0 0 0   0 0 0 0 0   0 0 0 0 0  0 0 0 0.0456645405 0" type="matrix" in="shadowBlurOuter1"></feColorMatrix>
        </filter>
        <path d="M29.5001349,54.7445593 L29.5001349,61.5001001 L36.2556758,61.5001001 L55.8111887,41.7668097 L49.0556479,35.0112689 L29.5001349,54.7445593 Z M60.9667331,36.6112654 C61.6778426,35.9001559 61.6778426,34.8334915 60.9667331,34.122382 L56.8778531,30.0334323 C56.1667435,29.3223227 55.1000792,29.3223227 54.3889696,30.0334323 L51.1889766,33.2334253 L57.9445174,39.9889661 L60.9667331,36.6112654 Z" id="path-4"></path>
        <filter x="-1.6%" y="-4.7%" width="103.1%" height="106.2%" filterUnits="objectBoundingBox" id="filter-5">
            <feOffset dx="0" dy="-1" in="SourceAlpha" result="shadowOffsetOuter1"></feOffset>
            <feColorMatrix values="0 0 0 0 0   0 0 0 0 0   0 0 0 0 0  0 0 0 0.177370725 0" type="matrix" in="shadowOffsetOuter1"></feColorMatrix>
        </filter>
        <circle id="path-6" cx="18.5416804" cy="18.5416804" r="18.5416804"></circle>
        <filter x="-35.1%" y="-29.7%" width="170.1%" height="170.1%" filterUnits="objectBoundingBox" id="filter-7">
            <feOffset dx="0" dy="2" in="SourceAlpha" result="shadowOffsetOuter1"></feOffset>
            <feGaussianBlur stdDeviation="4" in="shadowOffsetOuter1" result="shadowBlurOuter1"></feGaussianBlur>
            <feColorMatrix values="0 0 0 0 0   0 0 0 0 0   0 0 0 0 0  0 0 0 0.191635025 0" type="matrix" in="shadowBlurOuter1"></feColorMatrix>
        </filter>
        <linearGradient x1="50%" y1="0%" x2="50%" y2="100%" id="linearGradient-8">
            <stop stop-color="#65A0F2" offset="0%"></stop>
            <stop stop-color="#3566E0" offset="100%"></stop>
        </linearGradient>
    </defs>
    <g id="Page-1" stroke="none" stroke-width="1" fill="none" fill-rule="evenodd">
        <g id="Smartpdf-landing---edit" transform="translate(-663.000000, -124.000000)">
            <g id="pdf-edit" transform="translate(671.000000, 129.499800)">
                <g id="Oval">
                    <use fill="black" fill-opacity="1" filter="url(#filter-3)" xlink:href="#path-2"></use>
                    <use fill="url(#linearGradient-1)" fill-rule="evenodd" xlink:href="#path-2"></use>
                </g>
                <g id="Shape" fill-rule="nonzero">
                    <use fill="black" fill-opacity="1" filter="url(#filter-5)" xlink:href="#path-4"></use>
                    <use fill="#FFFFFF" xlink:href="#path-4"></use>
                </g>
                <circle id="Oval-Copy" stroke="#FFFFFF" opacity="0.146026252" cx="45.5001001" cy="45.5001001" r="39.5"></circle>
                <g id="Group-3" transform="translate(59.772107, 61.500200)">
                    <g id="Oval">
                        <use fill="black" fill-opacity="1" filter="url(#filter-7)" xlink:href="#path-6"></use>
                        <use fill="#FFFFFF" fill-rule="evenodd" xlink:href="#path-6"></use>
                    </g>
                    <path d="M23.4247258,9.54168043 C24.2970579,9.54168043 25.0067571,10.2513797 25.0067571,11.1237117 L25.0067571,11.1237117 L25.0067571,15.592282 L20.5219797,20.0770593 C20.3912337,20.2078406 20.2852727,20.3590828 20.2070852,20.5266023 L20.2070852,20.5266023 L18.8149329,23.5098211 C18.5346672,24.1105007 18.6612649,24.8289187 19.1299329,25.2975515 C19.6142805,25.7820047 20.3309407,25.8862429 20.9175579,25.6124812 L20.9175579,25.6124812 L23.9007063,24.2203289 C24.0651321,24.1435828 24.2139837,24.0400476 24.3431477,23.9125359 L24.3431477,23.9125359 L25.0067571,23.2571531 L25.0067571,25.9596492 C25.0067571,26.8319812 24.2970579,27.5416804 23.4247258,27.5416804 L23.4247258,27.5416804 L13.1239446,27.5416804 C12.2516126,27.5416804 11.5419133,26.8319812 11.5419133,25.9596492 L11.5419133,25.9596492 L11.5419133,11.1237117 C11.5419133,10.2513797 12.2516126,9.54168043 13.1239446,9.54168043 L13.1239446,9.54168043 Z M25.2701477,16.8204656 L27.6320501,19.1824031 C24.161857,22.609256 23.6388179,23.137137 23.5167575,23.232738 L23.5023592,23.2433267 C23.4879029,23.2530948 23.480666,23.2547597 23.4703963,23.2582538 L23.4606118,23.2619283 L23.4606118,23.2619283 L23.4547141,23.2645359 L20.4715657,24.6566882 C20.2706829,24.75045 20.0324641,24.7085437 19.8756672,24.5517117 C19.7188704,24.3949148 19.676929,24.1568015 19.7706907,23.9558132 L19.7706907,23.9558132 L21.1628079,20.9726648 C21.1638111,20.9705159 21.1646918,20.968516 21.1654791,20.9666357 L21.1693132,20.9565511 C21.1714308,20.9504686 21.1729805,20.9453517 21.1758177,20.9393078 L21.1812711,20.9293101 C21.1961837,20.9051166 21.2344932,20.8611349 21.3598873,20.7323905 L21.424177,20.6667147 C21.4596454,20.6306309 21.5002734,20.5895008 21.5468434,20.5425258 L21.7051625,20.3832679 C21.7249082,20.3634469 21.745401,20.3428877 21.7666701,20.3215608 L21.9798312,20.1080916 C22.1631408,19.9246956 22.3887449,19.6993339 22.6665866,19.4218624 L23.0533783,19.0356013 C23.0997273,18.9893156 23.1472294,18.9418776 23.1959135,18.8932579 L24.0184503,18.0716337 C24.0796793,18.0104571 24.1422354,17.9479508 24.2061474,17.8840853 L25.2701477,16.8204656 Z M26.9411243,15.1572234 C27.3551946,14.8198289 27.967511,14.8440515 28.3526829,15.2295047 L28.3526829,15.2295047 L29.2330305,16.1098523 C29.6442532,16.5211101 29.6442532,17.1902039 29.2330305,17.6014265 L29.2330305,17.6014265 L28.3824954,18.4413445 L26.0159172,16.0747312 C26.0615026,16.0291459 26.1046928,15.9859473 26.1456208,15.9450046 L26.4564867,15.6338994 C26.9133255,15.1765509 26.8932274,15.1962609 26.9411243,15.1572234 Z" id="Combined-Shape" fill="url(#linearGradient-8)" fill-rule="nonzero"></path>
                </g>
            </g>
        </g>
    </g>
</svg>