<?xml version="1.0" encoding="UTF-8"?>
<svg width="198px" height="81px" viewBox="0 0 198 81" version="1.1" xmlns="http://www.w3.org/2000/svg" xmlns:xlink="http://www.w3.org/1999/xlink">
    <title>ppt-to-pdf</title>
    <defs>
        <circle id="path-1" cx="32.9751368" cy="32.9751368" r="28"></circle>
        <filter x="-23.2%" y="-19.6%" width="146.4%" height="146.4%" filterUnits="objectBoundingBox" id="filter-2">
            <feOffset dx="0" dy="2" in="SourceAlpha" result="shadowOffsetOuter1"></feOffset>
            <feGaussianBlur stdDeviation="4" in="shadowOffsetOuter1" result="shadowBlurOuter1"></feGaussianBlur>
            <feComposite in="shadowBlurOuter1" in2="SourceAlpha" operator="out" result="shadowBlurOuter1"></feComposite>
            <feColorMatrix values="0 0 0 0 0   0 0 0 0 0   0 0 0 0 0  0 0 0 0.0853758058 0" type="matrix" in="shadowBlurOuter1"></feColorMatrix>
        </filter>
        <circle id="path-3" cx="32.9751368" cy="32.9751368" r="32"></circle>
        <filter x="-20.3%" y="-17.2%" width="140.6%" height="140.6%" filterUnits="objectBoundingBox" id="filter-4">
            <feOffset dx="0" dy="2" in="SourceAlpha" result="shadowOffsetOuter1"></feOffset>
            <feGaussianBlur stdDeviation="4" in="shadowOffsetOuter1" result="shadowBlurOuter1"></feGaussianBlur>
            <feComposite in="shadowBlurOuter1" in2="SourceAlpha" operator="out" result="shadowBlurOuter1"></feComposite>
            <feColorMatrix values="0 0 0 0 0   0 0 0 0 0   0 0 0 0 0  0 0 0 0.0853758058 0" type="matrix" in="shadowBlurOuter1"></feColorMatrix>
        </filter>
        <circle id="path-5" cx="32.9751368" cy="32.9751368" r="21.9751368"></circle>
        <filter x="-29.6%" y="-25.0%" width="159.2%" height="159.2%" filterUnits="objectBoundingBox" id="filter-6">
            <feOffset dx="0" dy="2" in="SourceAlpha" result="shadowOffsetOuter1"></feOffset>
            <feGaussianBlur stdDeviation="4" in="shadowOffsetOuter1" result="shadowBlurOuter1"></feGaussianBlur>
            <feComposite in="shadowBlurOuter1" in2="SourceAlpha" operator="out" result="shadowBlurOuter1"></feComposite>
            <feColorMatrix values="0 0 0 0 0   0 0 0 0 0   0 0 0 0 0  0 0 0 0.0853758058 0" type="matrix" in="shadowBlurOuter1"></feColorMatrix>
        </filter>
    </defs>
    <g id="Page-1" stroke="none" stroke-width="1" fill="none" fill-rule="evenodd">
        <g id="Smartpdf-covert-from-powerpoint" transform="translate(-621.000000, -147.000000)">
            <g id="ppt-to-pdf" transform="translate(621.500000, 151.000000)">
                <line x1="40.669863" y1="35" x2="161.669863" y2="35" id="Path-9" stroke="#3566E0" stroke-dasharray="2"></line>
                <g id="Group-5" transform="translate(69.000000, 2.000000)">
                    <g id="Oval" opacity="0.415568991">
                        <use fill="black" fill-opacity="1" filter="url(#filter-2)" xlink:href="#path-1"></use>
                        <circle stroke="#3566E0" stroke-width="1" stroke-linejoin="square" fill="#FFFFFF" fill-rule="evenodd" cx="32.9751368" cy="32.9751368" r="27.5"></circle>
                    </g>
                    <g id="Oval-Copy-4" opacity="0.116746611">
                        <use fill="black" fill-opacity="1" filter="url(#filter-4)" xlink:href="#path-3"></use>
                        <circle stroke="#3566E0" stroke-width="1" stroke-linejoin="square" fill="#FFFFFF" fill-rule="evenodd" cx="32.9751368" cy="32.9751368" r="31.5"></circle>
                    </g>
                    <g id="Oval-Copy-3">
                        <use fill="black" fill-opacity="1" filter="url(#filter-6)" xlink:href="#path-5"></use>
                        <circle stroke="#E8E8E8" stroke-width="1" stroke-linejoin="square" fill="#FFFFFF" fill-rule="evenodd" cx="32.9751368" cy="32.9751368" r="21.4751368"></circle>
                    </g>
                    <g id="011-right-arrow" transform="translate(19.975137, 25.475137)" fill="#3566E0" fill-rule="nonzero">
                        <polygon id="Path" points="18.8380629 0.0272536688 17.6818532 1.18351782 22.8269644 6.32868344 0 6.32868344 0 7.96390356 22.8269644 7.96390356 17.6818532 13.1090147 18.8380629 14.2652788 25.9571027 7.14623899"></polygon>
                    </g>
                </g>
                <g id="ppt">
                    <path d="M38.73125,0.5 L53.6991236,15.2187271 C53.850846,15.3713746 53.875,15.6105423 53.875,16.2225 L53.875,16.2225 L53.875,68.75 C53.875,68.8934441 53.6514939,69.0649689 53.4422251,69.2080098 C53.20021,69.3734336 52.8883602,69.5 52.54625,69.5 L52.54625,69.5 L2.45375,69.5 C2.11163976,69.5 1.79978999,69.3734336 1.55777488,69.2080098 C1.3485061,69.0649689 1.125,68.8934441 1.125,68.75 L1.125,68.75 L1.125,2.4075 C1.125,1.7842732 1.26313138,1.29747819 1.5157098,0.964965528 C1.7500083,0.656517881 2.08362663,0.5 2.45375,0.5 L2.45375,0.5 L2.45375,0.5 L38.73125,0.5 Z" id="Path" stroke="#EBEBEB" fill="#FFFFFF"></path>
                    <polygon id="Path" fill="#E8E8E8" fill-rule="nonzero" points="39.375 0.18875 39.375 15 54.18625 15"></polygon>
                    <path d="M52.54625,70 L2.45375,70 C1.44375,70 0.625,69.18125 0.625,68.17125 L0.625,48.75 L54.375,48.75 L54.375,68.17125 C54.375,69.18125 53.55625,70 52.54625,70 Z" id="Path" fill="#F6712E" fill-rule="nonzero"></path>
                    <g id="Group" transform="translate(11.250000, 52.500000)" fill="#FFFFFF" fill-rule="nonzero">
                        <path d="M3.22625,13.75 L1.175,13.75 L1.175,1.155 L4.7975,1.155 C5.3325,1.155 5.8625,1.24 6.38625,1.41125 C6.91,1.5825 7.38,1.83875 7.79625,2.18 C8.2125,2.52125 8.54875,2.935 8.805,3.41875 C9.06125,3.9025 9.19,4.44625 9.19,5.05125 C9.19,5.69 9.08125,6.2675 8.865,6.78625 C8.64875,7.305 8.34625,7.74125 7.95875,8.09375 C7.57125,8.44625 7.10375,8.72 6.5575,8.91375 C6.01125,9.1075 5.40625,9.20375 4.74625,9.20375 L3.225,9.20375 L3.225,13.75 L3.22625,13.75 Z M3.22625,2.71 L3.22625,7.7 L5.10625,7.7 C5.35625,7.7 5.60375,7.6575 5.85,7.57125 C6.095,7.48625 6.32,7.34625 6.525,7.1525 C6.73,6.95875 6.895,6.68875 7.02,6.34125 C7.145,5.99375 7.2075,5.56375 7.2075,5.05125 C7.2075,4.84625 7.17875,4.60875 7.1225,4.3425 C7.065,4.075 6.94875,3.81875 6.7725,3.57375 C6.595,3.32875 6.3475,3.12375 6.02875,2.95875 C5.71,2.79375 5.2875,2.71125 4.76375,2.71125 L3.22625,2.71125 L3.22625,2.71 Z" id="Shape"></path>
                        <path d="M13.56625,13.75 L11.515,13.75 L11.515,1.155 L15.1375,1.155 C15.6725,1.155 16.2025,1.24 16.72625,1.41125 C17.25,1.5825 17.72,1.83875 18.13625,2.18 C18.5525,2.52125 18.88875,2.935 19.145,3.41875 C19.40125,3.9025 19.53,4.44625 19.53,5.05125 C19.53,5.69 19.42125,6.2675 19.205,6.78625 C18.98875,7.305 18.68625,7.74125 18.29875,8.09375 C17.91125,8.44625 17.44375,8.72 16.8975,8.91375 C16.35125,9.1075 15.74625,9.20375 15.08625,9.20375 L13.565,9.20375 L13.565,13.75 L13.56625,13.75 Z M13.56625,2.71 L13.56625,7.7 L15.44625,7.7 C15.69625,7.7 15.94375,7.6575 16.19,7.57125 C16.435,7.48625 16.66,7.34625 16.865,7.1525 C17.07,6.95875 17.235,6.68875 17.36,6.34125 C17.485,5.99375 17.5475,5.56375 17.5475,5.05125 C17.5475,4.84625 17.51875,4.60875 17.4625,4.3425 C17.405,4.075 17.28875,3.81875 17.1125,3.57375 C16.935,3.32875 16.6875,3.12375 16.36875,2.95875 C16.05,2.79375 15.6275,2.71125 15.10375,2.71125 L13.56625,2.71125 L13.56625,2.71 Z" id="Shape"></path>
                        <polygon id="Path" points="30.7575 1.155 30.7575 2.55625 26.9975 2.55625 26.9975 13.75 24.93 13.75 24.93 2.55625 21.17 2.55625 21.17 1.155"></polygon>
                    </g>
                    <path d="M41.875,37.5 L11.875,37.5 L11.875,17.5 L41.875,17.5 L41.875,37.5 Z M14.375,35 L39.375,35 L39.375,20 L14.375,20 L14.375,35 Z" id="Shape" fill="#CACACA" fill-rule="nonzero"></path>
                    <path d="M18.12375,43.75 C17.905,43.75 17.6825,43.6925 17.48125,43.57125 C16.88875,43.21625 16.6975,42.44875 17.0525,41.85625 L20.8025,35.60625 C21.1575,35.01375 21.925,34.8225 22.5175,35.1775 C23.11,35.5325 23.30125,36.3 22.94625,36.8925 L19.19625,43.1425 C18.9625,43.53375 18.54875,43.75 18.12375,43.75 Z" id="Path" fill="#CACACA" fill-rule="nonzero"></path>
                    <path d="M35.62625,43.75 C35.20125,43.75 34.7875,43.53375 34.55375,43.14375 L30.80375,36.89375 C30.44875,36.30125 30.64,35.53375 31.2325,35.17875 C31.825,34.825 32.5925,35.015 32.9475,35.6075 L36.6975,41.8575 C37.0525,42.45 36.86125,43.2175 36.26875,43.5725 C36.0675,43.6925 35.845,43.75 35.62625,43.75 Z" id="Path" fill="#CACACA" fill-rule="nonzero"></path>
                    <path d="M26.875,20 C26.185,20 25.625,19.44125 25.625,18.75 L25.625,15 C25.625,14.30875 26.185,13.75 26.875,13.75 C27.565,13.75 28.125,14.30875 28.125,15 L28.125,18.75 C28.125,19.44125 27.565,20 26.875,20 Z" id="Path" fill="#CACACA" fill-rule="nonzero"></path>
                </g>
                <g id="file-(2)" transform="translate(149.000000, 0.000000)">
                    <path d="M36.5896021,0.5 L46.9791931,10.8901019 L46.9791931,64.7840219 L0.5,64.7840219 L0.5,0.5 L36.5896021,0.5 Z" id="Path" stroke="#EBEBEB" fill="#FFFFFF"></path>
                    <polygon id="Path" fill="#E8E8E8" fill-rule="nonzero" points="36.7967161 0 36.7967161 10.6830023 47.4791931 10.6830023"></polygon>
                    <polygon id="Path" fill="#B53438" fill-rule="nonzero" points="0 47.4791931 47.4791931 47.4791931 47.4791931 68.8451977 0 68.8451977"></polygon>
                    <g id="Group" transform="translate(5.916384, 50.961582)" fill="#FFFFFF" fill-rule="nonzero">
                        <path d="M1.2054423,14.32244 C0.55045904,14.32244 0.0183836847,13.7908898 0.0183836847,13.1359066 L0.0183836847,1.26584562 C0.0183836847,0.61033715 0.55045904,0.0787871435 1.2054423,0.0787871435 C1.86095078,0.0787871435 2.39250092,0.61033715 2.39250092,1.26584562 L2.39250092,13.1359066 C2.39250092,13.7908898 1.86095078,14.32244 1.2054423,14.32244 Z" id="Path"></path>
                        <path d="M34.4409826,2.45290438 L27.3191561,2.45290438 C26.6641728,2.45290438 26.1320975,1.92082889 26.1320975,1.26584562 C26.1320975,0.61033715 26.6641728,0.0787871435 27.3191561,0.0787871435 L34.4409826,0.0787871435 C35.096491,0.0787871435 35.6280412,0.61033715 35.6280412,1.26584562 C35.6280412,1.92082889 35.096491,2.45290438 34.4409826,2.45290438 Z" id="Path"></path>
                        <path d="M34.4409826,8.38767211 L27.3191561,8.38767211 C26.6641728,8.38767211 26.1320975,7.85612196 26.1320975,7.20061349 C26.1320975,6.54563036 26.6641728,6.01355487 27.3191561,6.01355487 L34.4409826,6.01355487 C35.096491,6.01355487 35.6280412,6.54563036 35.6280412,7.20061349 C35.6280412,7.85612196 35.096491,8.38767211 34.4409826,8.38767211 Z" id="Path"></path>
                        <path d="M27.3191561,14.32244 C26.6641728,14.32244 26.1320975,13.7908898 26.1320975,13.1359066 L26.1320975,1.26584562 C26.1320975,0.61033715 26.6641728,0.0787871435 27.3191561,0.0787871435 C27.9746645,0.0787871435 28.5062147,0.61033715 28.5062147,1.26584562 L28.5062147,13.1359066 C28.5062147,13.7908898 27.9746645,14.32244 27.3191561,14.32244 Z" id="Path"></path>
                    </g>
                    <path d="M22.8860699,12.792395 C22.7699903,12.8302128 21.3134798,14.8445357 23.0000485,16.5489628 C24.123027,14.0787253 22.9375442,12.7766375 22.8860699,12.792395 M23.6046081,22.6785972 C22.7579096,25.5690325 21.641234,28.6895259 20.4410443,31.5143053 C22.9123323,30.5672846 25.6010725,29.7400203 28.12436,29.154895 C26.5281338,27.3233581 24.9324329,25.0359066 23.6046081,22.6785972 M32.440316,30.3666403 C33.4041446,31.0988347 33.6389301,31.469134 34.2708025,31.469134 C34.5470824,31.469134 35.336529,31.4575786 35.7010504,30.9543917 C35.8780588,30.7096266 35.9468662,30.5531029 35.9726033,30.4711643 C35.8281603,30.393953 35.6343441,30.2411061 34.5827992,30.2411061 C33.9845428,30.2411061 33.2344897,30.2668432 32.440316,30.3666403 M16.3105005,35.5571328 C13.7819607,36.9590174 12.751951,38.111935 12.6784162,38.7621911 C12.6663357,38.8703919 12.6342956,39.152975 13.1873809,39.5705464 C13.3643891,39.5148703 14.3933484,39.0516022 16.3105005,35.5571328 M13.1611184,41.5444254 C12.7493246,41.5444254 12.3543388,41.4125883 12.0171302,41.163621 C10.7859508,40.2496911 10.6199727,39.2343882 10.6982345,38.5426377 C10.9130605,36.6422934 13.2940061,34.6505561 17.777516,32.6220516 C19.556528,28.7714645 21.2493997,24.0269068 22.2583995,20.0633917 C21.0786944,17.5259225 19.930504,14.2341984 20.7661723,12.3028646 C21.0592603,11.6263463 21.426408,11.1068767 22.1076535,10.882071 C22.3781559,10.7943547 23.0594016,10.6830023 23.3099444,10.6830023 C23.9307865,10.6830023 24.5269421,11.4236008 24.813727,11.9052524 C25.3479035,12.7992232 25.3505297,13.8402631 25.2659649,14.8445357 C25.1840263,15.8199197 25.0180482,16.7900513 24.8268583,17.7491525 C24.6871424,18.4540343 24.5290431,19.1557645 24.3604388,19.8548684 C25.954564,23.1056233 28.2120763,26.4188823 30.3771451,28.6868997 C31.9287253,28.4106196 33.2628531,28.2703787 34.3501148,28.2703787 C36.2005605,28.2703787 37.3245895,28.6963541 37.7815546,29.5735169 C38.1618335,30.2999338 38.0047846,31.1503089 37.3198623,32.0973296 C36.6612024,33.0075829 35.7546257,33.4881841 34.694677,33.4881841 C33.2544492,33.4881841 31.5810117,32.5910619 29.7127074,30.818878 C26.3569032,31.5122043 22.4385593,32.7475857 19.2707936,34.1153293 C18.2817532,36.1874294 17.3347326,37.8566648 16.451792,39.0815414 C15.2421478,40.7623323 14.1963806,41.5444254 13.1611184,41.5444254" id="Shape" fill="#B53438" fill-rule="nonzero"></path>
                    <path d="M10.6830023,60.5363126 L7.12182648,60.5363126 C6.46684322,60.5363126 5.93476787,60.0047625 5.93476787,59.349254 L5.93476787,52.2274275 C5.93476787,51.5719191 6.46684322,51.0403691 7.12182648,51.0403691 L10.6830023,51.0403691 C13.3013595,51.0403691 15.4307114,53.169721 15.4307114,55.7886035 C15.4307114,58.4069607 13.3013595,60.5363126 10.6830023,60.5363126 L10.6830023,60.5363126 Z M8.3088851,58.1621954 L10.6830023,58.1621954 C11.9919183,58.1621954 13.0565942,57.0975194 13.0565942,55.7886035 C13.0565942,54.4791622 11.9919183,53.4144863 10.6830023,53.4144863 L8.3088851,53.4144863 L8.3088851,58.1621954 Z" id="Shape" fill="#FFFFFF" fill-rule="nonzero"></path>
                    <path d="M21.3660047,65.2840219 L20.1789459,65.2840219 C19.5234374,65.2840219 18.9918874,64.7524718 18.9918874,64.0974885 L18.9918874,52.2274275 C18.9918874,51.5719191 19.5234374,51.0403691 20.1789459,51.0403691 L21.3660047,51.0403691 C25.2922272,51.0403691 28.487831,54.2343971 28.487831,58.1621954 C28.487831,62.0899939 25.2922272,65.2840219 21.3660047,65.2840219 Z M21.3660047,53.4144863 L21.3660047,62.9104299 C23.9843618,62.9104299 26.1137138,60.7805527 26.1137138,58.1621954 C26.1137138,55.5438383 23.9843618,53.4144863 21.3660047,53.4144863 Z" id="Shape" fill="#FFFFFF" fill-rule="nonzero"></path>
                </g>
            </g>
        </g>
    </g>
</svg>