<?xml version="1.0" encoding="UTF-8"?>
<svg width="198px" height="81px" viewBox="0 0 198 81" version="1.1" xmlns="http://www.w3.org/2000/svg" xmlns:xlink="http://www.w3.org/1999/xlink">
    <title>word-to-pdf</title>
    <defs>
        <circle id="path-1" cx="32.9751368" cy="32.9751368" r="28"></circle>
        <filter x="-23.2%" y="-19.6%" width="146.4%" height="146.4%" filterUnits="objectBoundingBox" id="filter-2">
            <feOffset dx="0" dy="2" in="SourceAlpha" result="shadowOffsetOuter1"></feOffset>
            <feGaussianBlur stdDeviation="4" in="shadowOffsetOuter1" result="shadowBlurOuter1"></feGaussianBlur>
            <feComposite in="shadowBlurOuter1" in2="SourceAlpha" operator="out" result="shadowBlurOuter1"></feComposite>
            <feColorMatrix values="0 0 0 0 0   0 0 0 0 0   0 0 0 0 0  0 0 0 0.0853758058 0" type="matrix" in="shadowBlurOuter1"></feColorMatrix>
        </filter>
        <circle id="path-3" cx="32.9751368" cy="32.9751368" r="32"></circle>
        <filter x="-20.3%" y="-17.2%" width="140.6%" height="140.6%" filterUnits="objectBoundingBox" id="filter-4">
            <feOffset dx="0" dy="2" in="SourceAlpha" result="shadowOffsetOuter1"></feOffset>
            <feGaussianBlur stdDeviation="4" in="shadowOffsetOuter1" result="shadowBlurOuter1"></feGaussianBlur>
            <feComposite in="shadowBlurOuter1" in2="SourceAlpha" operator="out" result="shadowBlurOuter1"></feComposite>
            <feColorMatrix values="0 0 0 0 0   0 0 0 0 0   0 0 0 0 0  0 0 0 0.0853758058 0" type="matrix" in="shadowBlurOuter1"></feColorMatrix>
        </filter>
        <circle id="path-5" cx="32.9751368" cy="32.9751368" r="21.9751368"></circle>
        <filter x="-29.6%" y="-25.0%" width="159.2%" height="159.2%" filterUnits="objectBoundingBox" id="filter-6">
            <feOffset dx="0" dy="2" in="SourceAlpha" result="shadowOffsetOuter1"></feOffset>
            <feGaussianBlur stdDeviation="4" in="shadowOffsetOuter1" result="shadowBlurOuter1"></feGaussianBlur>
            <feComposite in="shadowBlurOuter1" in2="SourceAlpha" operator="out" result="shadowBlurOuter1"></feComposite>
            <feColorMatrix values="0 0 0 0 0   0 0 0 0 0   0 0 0 0 0  0 0 0 0.0853758058 0" type="matrix" in="shadowBlurOuter1"></feColorMatrix>
        </filter>
    </defs>
    <g id="Page-1" stroke="none" stroke-width="1" fill="none" fill-rule="evenodd">
        <g id="Smartpdf-covert-from-word" transform="translate(-621.000000, -147.000000)">
            <g id="Group-6" transform="translate(621.500000, 151.000000)">
                <line x1="40.669863" y1="35" x2="161.669863" y2="35" id="Path-9" stroke="#3566E0" stroke-dasharray="2"></line>
                <g id="Group-5" transform="translate(69.000000, 2.000000)">
                    <g id="Oval" opacity="0.415568991">
                        <use fill="black" fill-opacity="1" filter="url(#filter-2)" xlink:href="#path-1"></use>
                        <circle stroke="#3566E0" stroke-width="1" stroke-linejoin="square" fill="#FFFFFF" fill-rule="evenodd" cx="32.9751368" cy="32.9751368" r="27.5"></circle>
                    </g>
                    <g id="Oval-Copy-4" opacity="0.116746611">
                        <use fill="black" fill-opacity="1" filter="url(#filter-4)" xlink:href="#path-3"></use>
                        <circle stroke="#3566E0" stroke-width="1" stroke-linejoin="square" fill="#FFFFFF" fill-rule="evenodd" cx="32.9751368" cy="32.9751368" r="31.5"></circle>
                    </g>
                    <g id="Oval-Copy-3">
                        <use fill="black" fill-opacity="1" filter="url(#filter-6)" xlink:href="#path-5"></use>
                        <circle stroke="#E8E8E8" stroke-width="1" stroke-linejoin="square" fill="#FFFFFF" fill-rule="evenodd" cx="32.9751368" cy="32.9751368" r="21.4751368"></circle>
                    </g>
                    <g id="011-right-arrow" transform="translate(19.975137, 25.475137)" fill="#3566E0" fill-rule="nonzero">
                        <polygon id="Path" points="18.8380629 0.0272536688 17.6818532 1.18351782 22.8269644 6.32868344 0 6.32868344 0 7.96390356 22.8269644 7.96390356 17.6818532 13.1090147 18.8380629 14.2652788 25.9571027 7.14623899"></polygon>
                    </g>
                </g>
                <g id="doc">
                    <path d="M38.73125,0.5 L53.6991236,15.2187271 C53.850846,15.3713746 53.875,15.6105423 53.875,16.2225 L53.875,16.2225 L53.875,68.75 C53.875,68.8934441 53.6514939,69.0649689 53.4422251,69.2080098 C53.20021,69.3734336 52.8883602,69.5 52.54625,69.5 L52.54625,69.5 L2.45375,69.5 C2.11163976,69.5 1.79978999,69.3734336 1.55777488,69.2080098 C1.3485061,69.0649689 1.125,68.8934441 1.125,68.75 L1.125,68.75 L1.125,2.4075 C1.125,1.7842732 1.26313138,1.29747819 1.5157098,0.964965528 C1.7500083,0.656517881 2.08362663,0.5 2.45375,0.5 L2.45375,0.5 L38.73125,0.5 Z" id="Path" stroke="#EBEBEB" fill="#FFFFFF"></path>
                    <polygon id="Path" fill="#E8E8E8" fill-rule="nonzero" points="39.375 0.18875 39.375 15 54.18625 15"></polygon>
                    <path d="M15.625,16.25 L8.125,16.25 C7.435,16.25 6.875,15.69 6.875,15 C6.875,14.31 7.435,13.75 8.125,13.75 L15.625,13.75 C16.315,13.75 16.875,14.31 16.875,15 C16.875,15.69 16.315,16.25 15.625,16.25 Z" id="Path" fill="#8697CB" fill-rule="nonzero"></path>
                    <path d="M19.375,22.5 L8.125,22.5 C7.435,22.5 6.875,21.94 6.875,21.25 C6.875,20.56 7.435,20 8.125,20 L19.375,20 C20.065,20 20.625,20.56 20.625,21.25 C20.625,21.94 20.065,22.5 19.375,22.5 Z" id="Path" fill="#8697CB" fill-rule="nonzero"></path>
                    <path d="M24.375,22.5 C24.05,22.5 23.725,22.3625 23.4875,22.1375 C23.2625,21.9 23.125,21.575 23.125,21.25 C23.125,20.925 23.2625,20.6 23.4875,20.3625 C23.95,19.9 24.8,19.9 25.2625,20.3625 C25.4875,20.6 25.625,20.925 25.625,21.25 C25.625,21.575 25.4875,21.9 25.2625,22.1375 C25.025,22.3625 24.7,22.5 24.375,22.5 Z" id="Path" fill="#8697CB" fill-rule="nonzero"></path>
                    <path d="M39.375,22.5 L29.375,22.5 C28.685,22.5 28.125,21.94 28.125,21.25 C28.125,20.56 28.685,20 29.375,20 L39.375,20 C40.065,20 40.625,20.56 40.625,21.25 C40.625,21.94 40.065,22.5 39.375,22.5 Z" id="Path" fill="#8697CB" fill-rule="nonzero"></path>
                    <path d="M8.125,41.25 C7.8,41.25 7.475,41.1125 7.2375,40.8875 C7.0125,40.65 6.875,40.325 6.875,40 C6.875,39.675 7.0125,39.35 7.2375,39.1125 C7.7,38.65 8.55,38.65 9.0125,39.1125 C9.2375,39.35 9.375,39.6625 9.375,40 C9.375,40.325 9.2375,40.65 9.0125,40.8875 C8.775,41.1125 8.45,41.25 8.125,41.25 Z" id="Path" fill="#8697CB" fill-rule="nonzero"></path>
                    <path d="M23.125,41.25 L13.125,41.25 C12.435,41.25 11.875,40.69 11.875,40 C11.875,39.31 12.435,38.75 13.125,38.75 L23.125,38.75 C23.815,38.75 24.375,39.31 24.375,40 C24.375,40.69 23.815,41.25 23.125,41.25 Z" id="Path" fill="#8697CB" fill-rule="nonzero"></path>
                    <path d="M46.875,22.5 L44.375,22.5 C43.685,22.5 43.125,21.94 43.125,21.25 C43.125,20.56 43.685,20 44.375,20 L46.875,20 C47.565,20 48.125,20.56 48.125,21.25 C48.125,21.94 47.565,22.5 46.875,22.5 Z" id="Path" fill="#8697CB" fill-rule="nonzero"></path>
                    <path d="M35.625,28.75 L8.125,28.75 C7.435,28.75 6.875,28.19 6.875,27.5 C6.875,26.81 7.435,26.25 8.125,26.25 L35.625,26.25 C36.315,26.25 36.875,26.81 36.875,27.5 C36.875,28.19 36.315,28.75 35.625,28.75 Z" id="Path" fill="#8697CB" fill-rule="nonzero"></path>
                    <path d="M46.875,28.75 L39.375,28.75 C38.685,28.75 38.125,28.19 38.125,27.5 C38.125,26.81 38.685,26.25 39.375,26.25 L46.875,26.25 C47.565,26.25 48.125,26.81 48.125,27.5 C48.125,28.19 47.565,28.75 46.875,28.75 Z" id="Path" fill="#8697CB" fill-rule="nonzero"></path>
                    <path d="M13.125,35 L8.125,35 C7.435,35 6.875,34.44 6.875,33.75 C6.875,33.06 7.435,32.5 8.125,32.5 L13.125,32.5 C13.815,32.5 14.375,33.06 14.375,33.75 C14.375,34.44 13.815,35 13.125,35 Z" id="Path" fill="#8697CB" fill-rule="nonzero"></path>
                    <path d="M30.625,35 L18.125,35 C17.435,35 16.875,34.44 16.875,33.75 C16.875,33.06 17.435,32.5 18.125,32.5 L30.625,32.5 C31.315,32.5 31.875,33.06 31.875,33.75 C31.875,34.44 31.315,35 30.625,35 Z" id="Path" fill="#8697CB" fill-rule="nonzero"></path>
                    <path d="M46.875,35 L35.625,35 C34.935,35 34.375,34.44 34.375,33.75 C34.375,33.06 34.935,32.5 35.625,32.5 L46.875,32.5 C47.565,32.5 48.125,33.06 48.125,33.75 C48.125,34.44 47.565,35 46.875,35 Z" id="Path" fill="#8697CB" fill-rule="nonzero"></path>
                    <path d="M52.54625,70 L2.45375,70 C1.44375,70 0.625,69.18125 0.625,68.17125 L0.625,48.75 L54.375,48.75 L54.375,68.17125 C54.375,69.18125 53.55625,70 52.54625,70 Z" id="Path" fill="#0096E6" fill-rule="nonzero"></path>
                    <g id="Group" transform="translate(11.250000, 52.500000)" fill="#FFFFFF" fill-rule="nonzero">
                        <path d="M10.625,7.1025 C10.625,8.13875 10.51375,9.025 10.29125,9.76 C10.06875,10.495 9.7875,11.11 9.445,11.60625 C9.1025,12.1025 8.71875,12.4925 8.29125,12.7775 C7.86375,13.0625 7.45125,13.275 7.0525,13.41875 C6.65375,13.56125 6.28875,13.6525 5.95875,13.6925 C5.62875,13.73 5.38375,13.75 5.225,13.75 L0.4575,13.75 L0.4575,1.155 L4.25,1.155 C5.31,1.155 6.24125,1.32375 7.04375,1.65875 C7.84625,1.99375 8.51375,2.4425 9.04375,3 C9.57375,3.5575 9.96875,4.19375 10.23125,4.905 C10.49375,5.6175 10.625,6.35 10.625,7.1025 Z M4.54125,12.24625 C5.93125,12.24625 6.93375,11.8025 7.54875,10.91375 C8.16375,10.025 8.47125,8.7375 8.47125,7.05125 C8.47125,6.5275 8.40875,6.00875 8.28375,5.49625 C8.1575,4.98375 7.91625,4.52 7.5575,4.10375 C7.19875,3.6875 6.71125,3.35125 6.09625,3.095 C5.48125,2.83875 4.68375,2.71 3.70375,2.71 L2.5075,2.71 L2.5075,12.24625 L4.54125,12.24625 L4.54125,12.24625 Z" id="Shape"></path>
                        <path d="M23.09375,7.3925 C23.09375,8.4525 22.96,9.38625 22.6925,10.195 C22.425,11.00375 22.05375,11.67625 21.58125,12.21125 C21.10875,12.7475 20.55625,13.15125 19.92375,13.425 C19.29125,13.69875 18.59875,13.835 17.8475,13.835 C17.09625,13.835 16.40375,13.69875 15.77125,13.425 C15.13875,13.15125 14.58625,12.7475 14.11375,12.21125 C13.64125,11.675 13.27,11.00375 13.0025,10.195 C12.735,9.38625 12.60125,8.45125 12.60125,7.3925 C12.60125,6.33375 12.735,5.40125 13.0025,4.59875 C13.27,3.795 13.64,3.12625 14.11375,2.59125 C14.58625,2.055 15.13875,1.64875 15.77125,1.36875 C16.40375,1.08875 17.09625,0.95 17.8475,0.95 C18.59875,0.95 19.29125,1.08875 19.92375,1.36875 C20.55625,1.64875 21.10875,2.055 21.58125,2.59125 C22.05375,3.1275 22.42375,3.79625 22.6925,4.59875 C22.95875,5.40125 23.09375,6.3325 23.09375,7.3925 Z M17.795,12.16125 C18.21625,12.16125 18.6175,12.07875 19,11.91375 C19.38125,11.74875 19.72375,11.4775 20.025,11.1025 C20.32625,10.72625 20.56375,10.23375 20.73375,9.62375 C20.90375,9.01375 20.995,8.27125 21.0075,7.39375 C20.99625,6.53875 20.9075,5.8125 20.7425,5.215 C20.5775,4.61625 20.35,4.12375 20.05875,3.73625 C19.7675,3.34875 19.4375,3.07 19.0675,2.89875 C18.6975,2.7275 18.3075,2.6425 17.89625,2.6425 C17.475,2.6425 17.0725,2.72125 16.69125,2.88125 C16.30875,3.04125 15.9675,3.31125 15.66625,3.6925 C15.36375,4.075 15.1275,4.56625 14.9575,5.17125 C14.7875,5.77625 14.695,6.515 14.68375,7.3925 C14.695,8.2475 14.78375,8.97625 14.94875,9.58 C15.11375,10.18375 15.34125,10.67625 15.6325,11.05875 C15.92375,11.44125 16.25375,11.71875 16.62375,11.89625 C16.995,12.0725 17.385,12.16125 17.795,12.16125 Z" id="Shape"></path>
                        <path d="M34.50875,12.46875 C34.04125,12.92375 33.51125,13.26625 32.92,13.49375 C32.3275,13.7225 31.69,13.835 31.00625,13.835 C30.25375,13.835 29.5625,13.69875 28.93,13.425 C28.2975,13.15125 27.745,12.7475 27.2725,12.21125 C26.8,11.675 26.42875,11.00375 26.16125,10.195 C25.89375,9.38625 25.76,8.45125 25.76,7.3925 C25.76,6.33375 25.89375,5.40125 26.16125,4.59875 C26.42875,3.795 26.79875,3.12625 27.2725,2.59125 C27.745,2.055 28.3,1.64875 28.93875,1.36875 C29.57625,1.08875 30.26625,0.95 31.00625,0.95 C31.69,0.95 32.3275,1.06375 32.92,1.29125 C33.5125,1.52 34.04125,1.86125 34.50875,2.31625 L33.09,3.58125 C32.805,3.25 32.48875,3.01125 32.14125,2.86375 C31.79375,2.71625 31.4325,2.64125 31.05625,2.64125 C30.635,2.64125 30.2325,2.72 29.85125,2.88 C29.46875,3.04 29.1275,3.31 28.82625,3.69125 C28.52375,4.07375 28.2875,4.565 28.1175,5.17 C27.9475,5.775 27.855,6.51375 27.84375,7.39125 C27.855,8.24625 27.94375,8.975 28.10875,9.57875 C28.27375,10.1825 28.50125,10.675 28.7925,11.0575 C29.08375,11.44 29.41375,11.7175 29.78375,11.895 C30.15375,12.0725 30.54375,12.16 30.955,12.16 C31.36625,12.16 31.75,12.085 32.10875,11.9375 C32.4675,11.79 32.795,11.55 33.09125,11.22 L34.50875,12.46875 Z" id="Path"></path>
                    </g>
                </g>
                <g id="file-(2)" transform="translate(149.000000, 0.000000)">
                    <path d="M36.5896021,0.5 L46.9791931,10.8901019 L46.9791931,64.7840219 L0.5,64.7840219 L0.5,0.5 L36.5896021,0.5 Z" id="Path" stroke="#EBEBEB" fill="#FFFFFF"></path>
                    <polygon id="Path" fill="#E8E8E8" fill-rule="nonzero" points="36.7967161 0 36.7967161 10.6830023 47.4791931 10.6830023"></polygon>
                    <polygon id="Path" fill="#B53438" fill-rule="nonzero" points="0 47.4791931 47.4791931 47.4791931 47.4791931 68.8451977 0 68.8451977"></polygon>
                    <g id="Group" transform="translate(5.916384, 50.961582)" fill="#FFFFFF" fill-rule="nonzero">
                        <path d="M1.2054423,14.32244 C0.55045904,14.32244 0.0183836847,13.7908898 0.0183836847,13.1359066 L0.0183836847,1.26584562 C0.0183836847,0.61033715 0.55045904,0.0787871435 1.2054423,0.0787871435 C1.86095078,0.0787871435 2.39250092,0.61033715 2.39250092,1.26584562 L2.39250092,13.1359066 C2.39250092,13.7908898 1.86095078,14.32244 1.2054423,14.32244 Z" id="Path"></path>
                        <path d="M34.4409826,2.45290438 L27.3191561,2.45290438 C26.6641728,2.45290438 26.1320975,1.92082889 26.1320975,1.26584562 C26.1320975,0.61033715 26.6641728,0.0787871435 27.3191561,0.0787871435 L34.4409826,0.0787871435 C35.096491,0.0787871435 35.6280412,0.61033715 35.6280412,1.26584562 C35.6280412,1.92082889 35.096491,2.45290438 34.4409826,2.45290438 Z" id="Path"></path>
                        <path d="M34.4409826,8.38767211 L27.3191561,8.38767211 C26.6641728,8.38767211 26.1320975,7.85612196 26.1320975,7.20061349 C26.1320975,6.54563036 26.6641728,6.01355487 27.3191561,6.01355487 L34.4409826,6.01355487 C35.096491,6.01355487 35.6280412,6.54563036 35.6280412,7.20061349 C35.6280412,7.85612196 35.096491,8.38767211 34.4409826,8.38767211 Z" id="Path"></path>
                        <path d="M27.3191561,14.32244 C26.6641728,14.32244 26.1320975,13.7908898 26.1320975,13.1359066 L26.1320975,1.26584562 C26.1320975,0.61033715 26.6641728,0.0787871435 27.3191561,0.0787871435 C27.9746645,0.0787871435 28.5062147,0.61033715 28.5062147,1.26584562 L28.5062147,13.1359066 C28.5062147,13.7908898 27.9746645,14.32244 27.3191561,14.32244 Z" id="Path"></path>
                    </g>
                    <path d="M22.8860699,12.792395 C22.7699903,12.8302128 21.3134798,14.8445357 23.0000485,16.5489628 C24.123027,14.0787253 22.9375442,12.7766375 22.8860699,12.792395 M23.6046081,22.6785972 C22.7579096,25.5690325 21.641234,28.6895259 20.4410443,31.5143053 C22.9123323,30.5672846 25.6010725,29.7400203 28.12436,29.154895 C26.5281338,27.3233581 24.9324329,25.0359066 23.6046081,22.6785972 M32.440316,30.3666403 C33.4041446,31.0988347 33.6389301,31.469134 34.2708025,31.469134 C34.5470824,31.469134 35.336529,31.4575786 35.7010504,30.9543917 C35.8780588,30.7096266 35.9468662,30.5531029 35.9726033,30.4711643 C35.8281603,30.393953 35.6343441,30.2411061 34.5827992,30.2411061 C33.9845428,30.2411061 33.2344897,30.2668432 32.440316,30.3666403 M16.3105005,35.5571328 C13.7819607,36.9590174 12.751951,38.111935 12.6784162,38.7621911 C12.6663357,38.8703919 12.6342956,39.152975 13.1873809,39.5705464 C13.3643891,39.5148703 14.3933484,39.0516022 16.3105005,35.5571328 M13.1611184,41.5444254 C12.7493246,41.5444254 12.3543388,41.4125883 12.0171302,41.163621 C10.7859508,40.2496911 10.6199727,39.2343882 10.6982345,38.5426377 C10.9130605,36.6422934 13.2940061,34.6505561 17.777516,32.6220516 C19.556528,28.7714645 21.2493997,24.0269068 22.2583995,20.0633917 C21.0786944,17.5259225 19.930504,14.2341984 20.7661723,12.3028646 C21.0592603,11.6263463 21.426408,11.1068767 22.1076535,10.882071 C22.3781559,10.7943547 23.0594016,10.6830023 23.3099444,10.6830023 C23.9307865,10.6830023 24.5269421,11.4236008 24.813727,11.9052524 C25.3479035,12.7992232 25.3505297,13.8402631 25.2659649,14.8445357 C25.1840263,15.8199197 25.0180482,16.7900513 24.8268583,17.7491525 C24.6871424,18.4540343 24.5290431,19.1557645 24.3604388,19.8548684 C25.954564,23.1056233 28.2120763,26.4188823 30.3771451,28.6868997 C31.9287253,28.4106196 33.2628531,28.2703787 34.3501148,28.2703787 C36.2005605,28.2703787 37.3245895,28.6963541 37.7815546,29.5735169 C38.1618335,30.2999338 38.0047846,31.1503089 37.3198623,32.0973296 C36.6612024,33.0075829 35.7546257,33.4881841 34.694677,33.4881841 C33.2544492,33.4881841 31.5810117,32.5910619 29.7127074,30.818878 C26.3569032,31.5122043 22.4385593,32.7475857 19.2707936,34.1153293 C18.2817532,36.1874294 17.3347326,37.8566648 16.451792,39.0815414 C15.2421478,40.7623323 14.1963806,41.5444254 13.1611184,41.5444254" id="Shape" fill="#B53438" fill-rule="nonzero"></path>
                    <path d="M10.6830023,60.5363126 L7.12182648,60.5363126 C6.46684322,60.5363126 5.93476787,60.0047625 5.93476787,59.349254 L5.93476787,52.2274275 C5.93476787,51.5719191 6.46684322,51.0403691 7.12182648,51.0403691 L10.6830023,51.0403691 C13.3013595,51.0403691 15.4307114,53.169721 15.4307114,55.7886035 C15.4307114,58.4069607 13.3013595,60.5363126 10.6830023,60.5363126 L10.6830023,60.5363126 Z M8.3088851,58.1621954 L10.6830023,58.1621954 C11.9919183,58.1621954 13.0565942,57.0975194 13.0565942,55.7886035 C13.0565942,54.4791622 11.9919183,53.4144863 10.6830023,53.4144863 L8.3088851,53.4144863 L8.3088851,58.1621954 Z" id="Shape" fill="#FFFFFF" fill-rule="nonzero"></path>
                    <path d="M21.3660047,65.2840219 L20.1789459,65.2840219 C19.5234374,65.2840219 18.9918874,64.7524718 18.9918874,64.0974885 L18.9918874,52.2274275 C18.9918874,51.5719191 19.5234374,51.0403691 20.1789459,51.0403691 L21.3660047,51.0403691 C25.2922272,51.0403691 28.487831,54.2343971 28.487831,58.1621954 C28.487831,62.0899939 25.2922272,65.2840219 21.3660047,65.2840219 Z M21.3660047,53.4144863 L21.3660047,62.9104299 C23.9843618,62.9104299 26.1137138,60.7805527 26.1137138,58.1621954 C26.1137138,55.5438383 23.9843618,53.4144863 21.3660047,53.4144863 Z" id="Shape" fill="#FFFFFF" fill-rule="nonzero"></path>
                </g>
            </g>
        </g>
    </g>
</svg>